<svg xmlns="http://www.w3.org/2000/svg" viewBox="0 0 1600 900" preserveAspectRatio="xMidYMid slice" role="presentation">
  <defs>
    <linearGradient id="sky" x1="0" y1="0" x2="0.35" y2="1">
      <stop offset="0" stop-color="#f7f8fa"/>
      <stop offset="1" stop-color="#e6e9ee"/>
    </linearGradient>
    <radialGradient id="glowA" cx="0.5" cy="0.5" r="0.5">
      <stop offset="0" stop-color="#67a2c9" stop-opacity="0.22"/>
      <stop offset="1" stop-color="#67a2c9" stop-opacity="0"/>
    </radialGradient>
    <radialGradient id="glowB" cx="0.5" cy="0.5" r="0.5">
      <stop offset="0" stop-color="#8fa6bd" stop-opacity="0.16"/>
      <stop offset="1" stop-color="#8fa6bd" stop-opacity="0"/>
    </radialGradient>
    <pattern id="grid" width="48" height="48" patternUnits="userSpaceOnUse">
      <path d="M48 0H0V48" fill="none" stroke="#1b1c1d" stroke-opacity="0.04" stroke-width="1"/>
    </pattern>
  </defs>

  <rect width="1600" height="900" fill="url(#sky)"/>
  <rect width="1600" height="900" fill="url(#grid)"/>
  <ellipse cx="330" cy="200" rx="620" ry="480" fill="url(#glowA)"/>
  <ellipse cx="1320" cy="760" rx="560" ry="420" fill="url(#glowB)"/>

  <g fill="none" stroke="#1b1c1d" stroke-opacity="0.06" stroke-width="1.5">
    <path d="M0 690 C 260 640, 420 720, 700 660 S 1180 600, 1600 664"/>
    <path d="M0 742 C 280 700, 440 772, 720 716 S 1200 664, 1600 720"/>
    <path d="M0 794 C 300 760, 460 824, 740 772 S 1220 728, 1600 776"/>
  </g>
</svg>
